<?xml version="1.0" encoding="UTF-8"?>
<svg id="Layer_1" data-name="Layer 1" xmlns="http://www.w3.org/2000/svg" xmlns:xlink="http://www.w3.org/1999/xlink" viewBox="0 0 260 420">
  <defs>
    <style>
      .cls-1 {
        fill: none;
      }

      .cls-2 {
        fill: #323232;
      }

      .cls-3 {
        fill: #ddd;
      }

      .cls-4 {
        isolation: isolate;
      }

      .cls-5 {
        fill: #c6c6c6;
      }

      .cls-6 {
        fill: #f5f5f5;
      }

      .cls-7 {
        fill: #626262;
      }

      .cls-8 {
        fill: #f3f3f3;
      }

      .cls-9 {
        fill: #cbcbcb;
      }

      .cls-10 {
        clip-path: url(#clippath);
      }

      .cls-11 {
        fill: #b2b2b2;
      }
    </style>
    <clipPath id="clippath">
      <path class="cls-1" d="M255.84,297.51c-.43,6.27-1.52,14.6-2.69,20.78-.85,4.47-2.66,10.27-4.02,14.61-.92,2.91-2.34,6.75-3.65,9.5-2.58,5.41-6.24,12.52-9.3,17.67-1.53,2.58-3.78,5.91-5.66,8.24-1.86,2.31-4.25,5.45-6.19,7.68s-4.69,5.16-6.82,7.25c-2.1,2.06-5,4.71-7.25,6.61s-5.49,4.29-7.85,6.12-5.86,4.01-8.46,5.6c34.76-21.07,58.75-58.7,60.9-102.85,3.45-70.79-50.57-131.54-120.66-135.69,70.09,4.15,124.11,64.91,120.66,135.69-2.15,44.15-26.15,81.78-60.9,102.85h0c-4.78,2.67-11.21,6.17-16.24,8.31s-11.89,4.59-17.18,5.9c-2.87.71-6.71,1.62-9.62,2.15-5.29.95-8.59,1.28-10.57,1.47-7.55.75-15.25.68-19.93.37-6.94-.47-15.01-1.81-20.25-2.91-6.15-1.29-9.61-2.4-14.78-4.16-3.74-1.28-8.62-3.32-12.19-5.04-12.67-6.09-20.07-11.83-25.27-15.9-1.2-.94-7.54-6-14.55-13.72-2.66-2.93-7.38-8.4-12.2-15.71-2.55-3.87-6.2-9.83-9.67-17.45-1.26-2.75-2.79-6.49-3.83-9.33s-2.18-6.7-3.08-9.58c-.03-.08-2.66-8.9-3.9-20.11-.69-6.25-.72-14.66-.66-20.94.03-3.17.41-7.4.94-10.53.52-3.08,1.1-7.2,1.75-10.25.64-3.03,1.67-7.04,2.55-10.01,2.45-8.23,5.27-14.65,7.31-18.9,4.15-8.67,8.44-14.96,10.03-17.29,5.48-7.99,11.06-13.91,12.48-15.41,2.02-2.14,4.83-4.9,7.02-6.88,2.21-2,5.31-4.5,7.61-6.4,3.43-2.83,8.37-6.15,12.2-8.4,4.72-2.77,11.16-6.29,16.24-8.31s11.9-4.55,17.18-5.9c2.87-.73,6.71-1.62,9.62-2.15,4.55-.81,6.43-1.02,10.57-1.47,1-.11,4.79-.44,8.97-.55,5.31-.13,9.21.09,9.24.09.99.06,1.97.09,2.96.18,1.14.11,3.05.29,5.26.61,3.33.48,6.79,1,12.54,2.18,7.03,1.44,13.51,3.29,16.82,4.49,3.04,1.1,7.03,2.75,9.98,4.09,2.44,1.1,5.59,2.77,7.96,4.01,3.25,1.72,7.48,4.25,10.45,6.42,7.27,5.29,11.28,8.21,15.72,12.64,2.15,2.14,5.04,4.97,7.08,7.21,1.98,2.18,4.51,5.19,6.32,7.52,4.07,5.23,7.75,10.79,10.97,16.6,1.94,3.5,5.31,9.93,8.33,18.21q2.51,6.87,5.45,19.54c1.49,6.4,2.95,20.94,2.24,31.23Z"/>
    </clipPath>
  </defs>
  <path class="cls-3" d="M108.46,0s23.87,30.68,46.74,0c-28.15.5-46.74,0-46.74,0Z"/>
  <rect class="cls-3" x="131.05" y="6.82" width="2" height="155.8"/>
  <g class="cls-4">
    <g class="cls-4">
      <g class="cls-10">
        <g>
          <path class="cls-11" d="M143.53,419.06c-1.04.11-2.42.28-3.45.37,1.15-.11,2.3-.24,3.44-.39.4-.04.76-.08,1.09-.12l-1.08.14"/>
          <path class="cls-11" d="M139.04,419.53l-2.08.16c-1.07.07-2.49.15-3.55.2l7.03-.65c1.02-.04,1.94-.1,2.75-.17-1.38.18-2.76.34-4.15.46"/>
          <path class="cls-11" d="M132.8,419.91c-.87.03-2.04.06-2.91.08h-.47c2.42-.02,4.82-.25,7.19-.66,1.23-.01,2.37-.04,3.42-.08-2.39.35-4.8.57-7.23.66"/>
          <path class="cls-11" d="M129.05,420c-.45,0-1.04,0-1.49,0-.32,0-.75,0-1.07,0,1.91.02,3.8-.21,5.66-.67,1.39.02,2.72.02,3.96,0-2.33.42-4.69.64-7.07.66"/>
          <path class="cls-11" d="M126.18,419.99h-.59c-.47-.02-1.09-.04-1.56-.05,1.07.03,2.13-.21,3.18-.72,1.51.05,2.98.08,4.38.1-1.79.47-3.59.7-5.41.67"/>
          <path class="cls-11" d="M123.75,419.93c-.49-.02-1.15-.04-1.64-.06l-.36-.02s.1-.29.17-.85c1.59.08,3.16.14,4.68.19-.95.52-1.9.77-2.85.74"/>
          <path class="cls-11" d="M121.48,419.84c-.33-.02-.76-.04-1.09-.06-.38-.03-.89-.06-1.28-.09-.81-.26-1.92-.57-2.66-1,.73.05,1.48.1,2.24.14.87.05,1.73.1,2.58.14.05.57.12.86.21.86"/>
          <path class="cls-11" d="M118.7,419.65c-1.6-.15-2.03-.19-3.64-.37-1.25-.22-2.48-.55-3.69-.98,1.41.12,2.91.24,4.46.34.93.54,1.89.88,2.88,1.01"/>
          <path class="cls-11" d="M114.5,419.22c-2.38-.3-2.63-.33-4.57-.61-1.03-.21-2.06-.46-3.07-.74,1.23.13,2.54.26,3.94.39,1.21.42,2.45.74,3.7.96"/>
          <path class="cls-11" d="M109.27,418.5c-2.58-.41-3.04-.48-5.15-.86-.36-.08-.72-.17-1.07-.26,1.01.14,2.12.28,3.32.42.96.26,1.93.49,2.9.7"/>
          <path class="cls-11" d="M103.41,417.52l-1.63-.31c.28.04.57.09.87.13.25.06.51.12.76.18"/>
          <path class="cls-11" d="M156.46,416.79l-2.34.51c5.63-1.18,11.11-2.78,16.43-4.77.48-.1.9-.2,1.25-.31-4.56,1.5-10.67,3.45-15.34,4.56"/>
          <path class="cls-11" d="M152.05,417.72l-4.79.83c-.46.07-.98.13-1.57.18,7.06-1.1,13.91-3,20.48-5.6,1.57-.14,2.9-.31,3.96-.51-5.84,2.19-11.88,3.9-18.08,5.1"/>
          <path class="cls-11" d="M145.34,418.76c-.89.07-1.9.13-3.02.18,6.08-1.04,11.98-2.87,17.64-5.42,2.07-.09,3.93-.2,5.56-.33-6.48,2.6-13.23,4.48-20.19,5.58"/>
          <path class="cls-11" d="M141.86,418.96c-1.15.04-2.41.07-3.75.09,4.85-1.01,9.56-2.81,14.09-5.34,2.48-.03,4.8-.08,6.92-.16-5.54,2.54-11.31,4.37-17.26,5.41"/>
          <path class="cls-11" d="M137.56,419.05c-1.37.01-2.83,0-4.35-.01,3.41-1.01,6.75-2.82,9.96-5.34,2.81.03,5.5.04,8.02.02-4.39,2.52-8.95,4.32-13.63,5.33"/>
          <path class="cls-11" d="M132.59,419.03c-1.54-.02-3.16-.06-4.82-.11,1.83-1.05,3.63-2.89,5.38-5.44,3.06.09,6.03.16,8.88.2-3.05,2.52-6.21,4.33-9.44,5.35"/>
          <path class="cls-11" d="M127.1,418.9c-1.67-.06-3.4-.13-5.15-.21.12-1.12.28-3.02.47-5.64,3.23.16,6.4.29,9.49.39-1.57,2.56-3.18,4.4-4.81,5.46"/>
          <path class="cls-11" d="M121.25,418.65c-.94-.05-1.89-.1-2.84-.16-.83-.05-1.65-.1-2.46-.15-1.63-1.22-3.16-3.22-4.59-5.93,1.48.1,2.99.19,4.53.28,1.76.1,3.5.2,5.23.29,0,2.63.04,4.54.12,5.67"/>
          <path class="cls-11" d="M115.26,418.29c-1.71-.12-3.34-.24-4.9-.38-3.26-1.34-6.37-3.46-9.3-6.29,2.87.25,5.88.48,9.03.7,1.61,2.72,3.34,4.74,5.17,5.97"/>
          <path class="cls-11" d="M109.74,417.86c-1.53-.14-2.98-.28-4.33-.43-4.71-1.48-9.21-3.74-13.47-6.69,2.49.27,5.15.54,7.97.79,3.09,2.84,6.37,4.97,9.82,6.33"/>
          <path class="cls-11" d="M104.87,417.37c-1.32-.15-2.54-.3-3.65-.46-5.94-1.63-11.62-4.04-17-7.13,2.04.29,4.3.57,6.73.85,4.4,2.97,9.05,5.24,13.92,6.74"/>
          <path class="cls-11" d="M100.78,416.85c-1.08-.16-2.04-.32-2.88-.48-6.91-1.79-13.53-4.35-19.8-7.58,1.54.29,3.31.59,5.3.88,5.5,3.11,11.31,5.53,17.37,7.18"/>
          <path class="cls-11" d="M97.36,416.26c-2.75-.67-3.04-.74-4.67-1.2l-2.15-.64c-5.78-1.77-11.36-3.99-16.71-6.62.97.29,2.2.58,3.67.88,6.29,3.22,12.94,5.77,19.86,7.58"/>
          <path class="cls-11" d="M87.08,413.3c-4.22-1.57-9.79-3.82-13.9-5.63l-.97-.47c.33.16.75.32,1.26.48,4.39,2.15,8.94,4.03,13.62,5.62"/>
          <path class="cls-11" d="M193.93,401.58c-10.21,5.69-11.27,6.29-19.76,9.75-.39.13-.86.25-1.42.36,7.14-2.83,13.96-6.37,20.37-10.53,1.44-.29,2.48-.62,3.08-.98-.75.48-1.51.95-2.27,1.41"/>
          <path class="cls-11" d="M172.31,411.77c-1.11.2-2.5.38-4.14.53,6.51-2.75,12.73-6.21,18.58-10.3,2.28-.21,4.22-.45,5.76-.74-6.36,4.15-13.13,7.68-20.2,10.5"/>
          <path class="cls-11" d="M167.5,412.36c-1.71.14-3.65.26-5.81.35,5.61-2.69,10.98-6.1,16.04-10.14,3-.12,5.72-.29,8.09-.49-5.77,4.08-11.9,7.53-18.32,10.27"/>
          <path class="cls-11" d="M160.81,412.74c-2.21.08-4.63.14-7.23.17,4.49-2.67,8.8-6.04,12.87-10.06,3.61-.04,6.97-.12,10.06-.23-4.95,4.04-10.21,7.43-15.7,10.12"/>
          <path class="cls-11" d="M152.53,412.92c-2.64.02-5.44.01-8.38-.02,3.19-2.67,6.26-6.04,9.17-10.06,4.09.05,7.99.06,11.66.03-3.94,4.01-8.11,7.39-12.45,10.05"/>
          <path class="cls-7" d="M142.96,412.88c-2.97-.04-6.07-.11-9.27-.21,1.75-2.7,3.44-6.11,5.07-10.15,4.45.14,8.77.24,12.9.29-2.77,4.02-5.68,7.4-8.71,10.07"/>
          <path class="cls-11" d="M132.39,412.63c-3.22-.11-6.54-.24-9.91-.41.2-2.76.43-6.23.68-10.32,4.69.23,9.31.42,13.79.56-1.47,4.05-3,7.46-4.56,10.17"/>
          <path class="cls-11" d="M121.13,412.16c-1.81-.09-3.63-.19-5.47-.3-1.6-.09-3.18-.19-4.73-.3-1.4-2.85-2.68-6.41-3.85-10.59,2.16.14,4.35.28,6.58.41,2.55.15,5.09.29,7.61.42-.09,4.11-.14,7.58-.15,10.35"/>
          <path class="cls-2" d="M109.6,411.47c-3.29-.23-6.44-.47-9.43-.73-2.88-2.97-5.58-6.63-8.06-10.91,4.17.36,8.55.7,13.13,1.01,1.32,4.19,2.78,7.76,4.37,10.62"/>
          <path class="cls-11" d="M98.98,410.64c-2.95-.26-5.73-.54-8.33-.82-4.2-3.09-8.15-6.88-11.79-11.27,3.61.4,7.49.78,11.59,1.14,2.63,4.29,5.48,7.97,8.53,10.95"/>
          <path class="cls-11" d="M89.61,409.7c-2.54-.29-4.9-.58-7.03-.88-5.31-3.23-10.32-7.14-14.96-11.66,2.97.42,6.24.83,9.79,1.23,3.78,4.41,7.86,8.21,12.2,11.31"/>
          <path class="cls-11" d="M81.73,408.69c-2.08-.3-3.93-.61-5.54-.91-6.2-3.37-12.04-7.42-17.46-12.07,2.23.43,4.82.85,7.7,1.27,4.74,4.53,9.86,8.46,15.29,11.71"/>
          <path class="cls-11" d="M75.56,407.66c-1.54-.31-2.83-.61-3.84-.91-6.81-3.52-13.24-7.7-19.21-12.47,1.4.42,3.2.85,5.34,1.27,5.5,4.66,11.42,8.72,17.7,12.12"/>
          <path class="cls-11" d="M71.34,406.62c-.57-.18-1.03-.36-1.38-.54-4.35-2.43-10.07-5.79-14.25-8.5l-6.34-4.66c1.13.66,1.23.71,2.62,1.18,6.02,4.79,12.49,8.99,19.36,12.52"/>
          <path class="cls-11" d="M193.93,401.58c.76-.46,1.51-.93,2.26-1.41.01,0,.03-.02.04-.03l-2.31,1.43"/>
          <path class="cls-11" d="M198.25,398.85c-.61.37-1.68.71-3.16,1.01,6.33-4.29,12.26-9.21,17.7-14.67,1.82-.37,3.14-.78,3.9-1.24-5.66,5.53-11.84,10.52-18.44,14.9"/>
          <path class="cls-11" d="M194.47,399.97c-1.59.29-3.57.54-5.92.76,5.78-4.22,11.2-9.06,16.17-14.46,2.89-.26,5.34-.58,7.3-.93-5.39,5.45-11.27,10.36-17.55,14.64"/>
          <path class="cls-11" d="M187.59,400.81c-2.44.2-5.22.37-8.31.5,5-4.17,9.68-8.97,14-14.32,3.81-.16,7.25-.36,10.26-.62-4.9,5.39-10.24,10.23-15.94,14.44"/>
          <path class="cls-11" d="M178.03,401.36c-3.16.12-6.62.2-10.33.24,4.02-4.15,7.8-8.92,11.28-14.26,4.57-.05,8.84-.15,12.75-.29-4.22,5.35-8.81,10.15-13.7,14.31"/>
          <path class="cls-2" d="M166.19,401.61c-3.77.03-7.78.02-11.98-.03,2.88-4.15,5.6-8.92,8.12-14.26,5.19.06,10.13.07,14.79.04-3.38,5.33-7.03,10.11-10.93,14.25"/>
          <path class="cls-11" d="M152.52,401.56c-4.25-.06-8.68-.16-13.25-.3,1.62-4.17,3.16-8.98,4.61-14.34,5.64.17,11.11.3,16.36.37-2.4,5.34-4.98,10.12-7.72,14.27"/>
          <path class="cls-11" d="M137.41,401.2c-4.61-.15-9.34-.35-14.16-.58.26-4.23.55-9.08.86-14.49,5.95.29,11.8.53,17.48.72-1.32,5.36-2.72,10.17-4.18,14.35"/>
          <path class="cls-11" d="M121.3,400.52c-2.59-.13-5.19-.27-7.81-.43-2.29-.14-4.55-.28-6.76-.43-1.14-4.31-2.14-9.24-3.01-14.71,2.73.18,5.52.36,8.34.52,3.24.19,6.45.37,9.65.53-.17,5.41-.31,10.27-.4,14.51"/>
          <path class="cls-11" d="M104.83,399.54c-4.7-.32-9.2-.67-13.48-1.04-2.44-4.41-4.65-9.43-6.62-14.98,5.28.46,10.84.89,16.64,1.29,1,5.48,2.16,10.42,3.46,14.74"/>
          <path class="cls-11" d="M89.64,398.34c-4.21-.37-8.19-.77-11.9-1.17-3.59-4.52-6.87-9.64-9.81-15.3,4.58.5,9.49.99,14.7,1.45,2.09,5.57,4.44,10.6,7.02,15.02"/>
          <path class="cls-5" d="M76.25,397.01c-3.64-.41-7-.83-10.05-1.26-4.56-4.64-8.75-9.88-12.51-15.63,3.77.53,7.92,1.05,12.41,1.56,3.05,5.66,6.45,10.8,10.16,15.33"/>
          <path class="cls-11" d="M64.99,395.57c-2.97-.43-5.62-.87-7.91-1.31-5.33-4.77-10.24-10.12-14.65-15.98,2.83.54,6.1,1.08,9.77,1.61,3.85,5.77,8.13,11.02,12.8,15.67"/>
          <path class="cls-11" d="M56.18,394.09c-2.2-.44-4.04-.88-5.48-1.31-5.87-4.89-11.28-10.36-16.15-16.32,1.78.53,4.05,1.07,6.77,1.61,4.48,5.87,9.46,11.24,14.86,16.02"/>
          <path class="cls-11" d="M50.14,392.6c-1.88-.69-2.07-.76-2.73-1.24l-1.7-1.41c-5.51-4.65-10.62-9.76-15.26-15.28.61.51,1.76,1.03,3.41,1.56,4.91,5.98,10.36,11.46,16.28,16.37"/>
          <path class="cls-11" d="M33.63,378.35l-3.45-3.93s.03.04.05.05c1.11,1.31,2.24,2.61,3.4,3.88"/>
          <path class="cls-11" d="M210.09,389.99c-3.48,2.71-8.14,6.3-11.76,8.8l-.08.05c6.6-4.38,12.78-9.37,18.44-14.9.17-.1.32-.21.43-.32l-7.02,6.37"/>
          <path class="cls-11" d="M218.41,382.23c-.77.47-2.11.89-3.97,1.26,5.34-5.57,10.19-11.69,14.46-18.27,2.13-.43,3.68-.92,4.56-1.45-4.44,6.64-9.49,12.81-15.05,18.46"/>
          <path class="cls-11" d="M213.66,383.64c-1.99.36-4.49.68-7.43.95,4.88-5.51,9.32-11.57,13.23-18.11,3.38-.31,6.25-.67,8.54-1.09-4.24,6.57-9.04,12.68-14.34,18.25"/>
          <path class="cls-7" d="M205.03,384.7c-3.06.26-6.56.47-10.44.63,4.24-5.47,8.09-11.5,11.5-18,4.45-.19,8.47-.43,11.99-.72-3.86,6.53-8.24,12.58-13.05,18.09"/>
          <path class="cls-11" d="M193.01,385.39c-3.98.15-8.32.25-12.97.3,3.42-5.45,6.55-11.46,9.33-17.94,5.35-.06,10.34-.17,14.91-.34-3.34,6.5-7.11,12.52-11.26,17.99"/>
          <path class="cls-11" d="M178.15,385.7c-4.73.04-9.77.03-15.05-.04,2.48-5.45,4.76-11.46,6.8-17.95,6.06.07,11.85.09,17.29.04-2.7,6.48-5.73,12.49-9.05,17.94"/>
          <path class="cls-11" d="M160.97,385.64c-5.34-.08-10.91-.2-16.65-.38,1.44-5.48,2.78-11.5,4-18.01,6.6.2,13,.35,19.13.44-1.95,6.49-4.12,12.5-6.49,17.95"/>
          <path class="cls-11" d="M141.99,385.18c-5.79-.19-11.74-.43-17.79-.73.31-5.52.65-11.59,1.01-18.13,6.96.34,13.79.62,20.44.84-1.13,6.51-2.35,12.54-3.66,18.02"/>
          <path class="cls-11" d="M121.76,384.33c-3.25-.16-6.52-.34-9.81-.54-2.88-.17-5.71-.35-8.49-.53-.84-5.59-1.54-11.71-2.09-18.3,3.2.21,6.45.42,9.76.61,3.78.22,7.55.43,11.28.62-.25,6.54-.46,12.62-.64,18.14"/>
          <path class="cls-11" d="M101.07,383.1c-5.9-.41-11.56-.85-16.93-1.31-1.92-5.67-3.58-11.87-4.97-18.52,6.17.53,12.68,1.04,19.46,1.5.65,6.6,1.47,12.73,2.44,18.33"/>
          <path class="cls-2" d="M81.99,381.6c-5.29-.47-10.29-.96-14.95-1.47-2.87-5.76-5.39-12.04-7.52-18.77,5.36.59,11.1,1.15,17.18,1.69,1.48,6.66,3.25,12.87,5.29,18.55"/>
          <path class="cls-11" d="M65.17,379.92c-4.57-.52-8.79-1.05-12.62-1.59-3.68-5.86-6.92-12.23-9.68-19.04,4.4.62,9.26,1.23,14.5,1.82,2.21,6.74,4.82,13.03,7.79,18.8"/>
          <path class="cls-11" d="M51.03,378.11c-3.73-.54-7.06-1.09-9.94-1.64-4.31-5.97-8.13-12.43-11.38-19.32,3.31.63,7.14,1.26,11.42,1.89,2.82,6.81,6.14,13.2,9.9,19.07"/>
          <path class="cls-11" d="M39.95,376.25c-2.76-.55-5.07-1.1-6.89-1.64-4.76-6.07-8.98-12.63-12.58-19.59,2.08.62,4.74,1.26,7.91,1.89,3.3,6.9,7.17,13.37,11.55,19.35"/>
          <path class="cls-11" d="M32.36,374.39c-1.68-.54-2.85-1.07-3.47-1.59-4.99-6.17-9.42-12.82-13.2-19.86.71.59,2.06,1.2,3.99,1.82,3.63,6.98,7.88,13.55,12.68,19.63"/>
          <path class="cls-11" d="M28.67,372.59s-.05-.05-.07-.08l-1.72-2.16q-7.68-10.73-10.93-16.59l-.75-1.37c.06.1.13.21.23.31,3.79,7.05,8.23,13.71,13.23,19.89"/>
          <path class="cls-11" d="M224.24,376.1l-5.37,5.79c-.12.12-.27.23-.46.35,5.56-5.64,10.61-11.82,15.05-18.46.33-.2.56-.4.7-.61-2.88,3.95-6.7,9.26-9.92,12.93"/>
          <path class="cls-11" d="M234.8,361.72c-.9.54-2.46,1.03-4.61,1.47,4.15-6.67,7.72-13.8,10.62-21.32,2.35-.48,4.05-1.01,5.03-1.6-3.02,7.55-6.72,14.73-11.04,21.45"/>
          <path class="cls-5" d="M229.29,363.36c-2.32.42-5.22.79-8.64,1.1,3.8-6.63,7.08-13.72,9.76-21.2,3.73-.34,6.89-.74,9.42-1.2-2.88,7.51-6.42,14.64-10.54,21.3"/>
          <path class="cls-11" d="M219.25,364.59c-3.56.3-7.62.54-12.13.73,3.32-6.6,6.18-13.66,8.53-21.13,4.91-.2,9.35-.47,13.23-.79-2.64,7.48-5.88,14.57-9.63,21.19"/>
          <path class="cls-11" d="M205.28,365.39c-4.62.17-9.67.29-15.08.35,2.7-6.58,5.05-13.63,7-21.09,5.9-.06,11.4-.19,16.44-.38-2.31,7.46-5.12,14.53-8.37,21.12"/>
          <path class="cls-11" d="M188.01,365.76c-5.5.04-11.36.03-17.49-.04,1.99-6.58,3.74-13.63,5.22-21.09,6.69.08,13.07.09,19.07.05-1.89,7.45-4.18,14.51-6.8,21.09"/>
          <path class="cls-5" d="M168.04,365.68c-6.2-.09-12.67-.23-19.35-.44,1.2-6.6,2.29-13.67,3.24-21.13,7.28.22,14.33.38,21.1.48-1.41,7.46-3.09,14.51-4.99,21.09"/>
          <path class="cls-11" d="M145.99,365.15c-6.72-.22-13.64-.5-20.68-.85.36-6.63.73-13.73,1.12-21.22,7.67.37,15.22.68,22.55.92-.88,7.47-1.89,14.54-2.99,21.14"/>
          <path class="cls-9" d="M122.48,364.16c-3.77-.19-7.58-.4-11.41-.63-3.34-.2-6.64-.41-9.87-.62-.51-6.68-.87-13.82-1.06-21.34,3.52.24,7.11.46,10.76.68,4.17.25,8.32.47,12.44.68-.32,7.49-.61,14.59-.86,21.23"/>
          <path class="cls-7" d="M98.43,362.73c-6.86-.47-13.43-.98-19.68-1.52-1.33-6.74-2.37-13.93-3.1-21.5,6.81.59,13.98,1.14,21.46,1.66.26,7.53.7,14.67,1.32,21.36"/>
          <path class="cls-11" d="M76.26,360.99c-6.15-.55-11.96-1.12-17.38-1.71-2.04-6.81-3.69-14.06-4.9-21.67,5.91.65,12.25,1.27,18.95,1.87.79,7.57,1.91,14.77,3.32,21.52"/>
          <path class="cls-11" d="M56.71,359.03c-5.31-.6-10.22-1.22-14.67-1.84-2.65-6.89-4.81-14.2-6.43-21.86,4.86.68,10.21,1.36,16,2.01,1.26,7.62,2.97,14.87,5.1,21.7"/>
          <path class="cls-2" d="M40.28,356.94c-4.33-.63-8.2-1.27-11.55-1.91-3.14-6.97-5.7-14.35-7.63-22.06,3.65.7,7.87,1.39,12.6,2.08,1.65,7.67,3.87,14.99,6.59,21.89"/>
          <path class="cls-11" d="M27.41,354.77c-3.21-.64-5.9-1.28-8-1.91-3.47-7.05-6.32-14.49-8.48-22.25,2.3.69,5.23,1.38,8.73,2.08,1.96,7.72,4.57,15.1,7.75,22.08"/>
          <path class="cls-11" d="M18.59,352.61c-1.95-.63-3.31-1.25-4.04-1.84-3.65-7.12-6.64-14.63-8.92-22.44.79.65,2.27,1.33,4.4,2.01,2.17,7.77,5.05,15.22,8.55,22.28"/>
          <path class="cls-11" d="M14.3,350.52c-.1-.11-.18-.22-.24-.33-2.02-4.34-4.65-10.17-6.4-14.63l-2.64-8.05.34.55c2.28,7.82,5.28,15.34,8.94,22.47"/>
          <path class="cls-11" d="M245.47,342.41q-5.76,12.05-9.35,17.74l-.6.93-.72.64c4.32-6.73,8.02-13.9,11.04-21.45.47-.28.76-.58.88-.88l-1.25,3.01"/>
          <path class="cls-11" d="M246.75,337.94c-.98.6-2.7,1.13-5.06,1.61,2.77-7.6,4.87-15.57,6.22-23.85,2.47-.5,4.26-1.06,5.28-1.68-1.39,8.29-3.57,16.29-6.44,23.92"/>
          <path class="cls-11" d="M240.69,339.74c-2.54.46-5.73.87-9.48,1.21,2.55-7.57,4.5-15.52,5.77-23.79,3.92-.36,7.24-.78,9.89-1.26-1.34,8.28-3.43,16.25-6.18,23.84"/>
          <path class="cls-11" d="M229.67,341.09c-3.91.33-8.37.59-13.31.8,2.25-7.55,3.97-15.49,5.12-23.75,5.16-.21,9.82-.49,13.89-.83-1.25,8.27-3.18,16.22-5.7,23.78"/>
          <path class="cls-11" d="M214.34,341.97c-5.07.19-10.61.32-16.55.38,1.86-7.54,3.32-15.47,4.31-23.73,6.2-.07,11.98-.2,17.27-.4-1.13,8.26-2.83,16.2-5.03,23.75"/>
          <path class="cls-9" d="M195.38,342.37c-6.04.05-12.47.03-19.2-.05,1.42-7.54,2.55-15.47,3.37-23.73,7.02.08,13.73.1,20.03.05-.97,8.26-2.39,16.19-4.21,23.73"/>
          <path class="cls-8" d="M173.46,342.29c-6.81-.1-13.91-.26-21.24-.48.92-7.55,1.7-15.49,2.32-23.75,7.64.24,15.06.4,22.16.51-.79,8.26-1.89,16.19-3.25,23.73"/>
          <path class="cls-11" d="M149.25,341.71c-7.38-.24-14.97-.55-22.7-.93.39-7.57.79-15.53,1.21-23.8,8.06.39,15.98.72,23.69.97-.6,8.26-1.33,16.2-2.19,23.76"/>
          <path class="cls-11" d="M123.44,340.62c-4.14-.21-8.32-.44-12.52-.69-3.67-.22-7.28-.44-10.83-.68-.16-7.6-.14-15.58.05-23.86,3.7.25,7.47.48,11.3.71,4.38.26,8.74.5,13.07.72-.39,8.27-.74,16.23-1.07,23.8"/>
          <path class="cls-11" d="M97.04,339.05c-7.53-.52-14.75-1.08-21.6-1.67-.67-7.64-1.02-15.65-1.02-23.95,7.15.62,14.69,1.2,22.54,1.74-.17,8.28-.14,16.27.08,23.87"/>
          <path class="cls-6" d="M72.7,337.14c-6.75-.6-13.13-1.23-19.08-1.88-1.12-7.69-1.79-15.72-1.97-24.04,6.21.68,12.86,1.34,19.91,1.96.03,8.3.42,16.31,1.14,23.96"/>
          <path class="cls-11" d="M51.24,334.99c-5.83-.66-11.22-1.33-16.1-2.02-1.5-7.73-2.44-15.81-2.78-24.14,5.1.72,10.72,1.43,16.81,2.11.2,8.32.91,16.36,2.08,24.05"/>
          <path class="cls-8" d="M33.2,332.69c-4.76-.69-9-1.39-12.68-2.1-1.8-7.78-2.96-15.89-3.42-24.24,3.84.73,8.27,1.47,13.23,2.19.35,8.34,1.32,16.41,2.86,24.15"/>
          <path class="cls-11" d="M19.07,330.31c-3.52-.7-6.47-1.4-8.79-2.1-2.01-7.83-3.32-15.97-3.86-24.35,2.41.72,5.49,1.45,9.17,2.19.47,8.35,1.65,16.47,3.48,24.25"/>
          <path class="cls-11" d="M9.39,327.94c-2.14-.69-3.64-1.37-4.43-2.02-2.12-7.88-3.51-16.06-4.09-24.45.83.69,2.39,1.39,4.62,2.11.54,8.37,1.87,16.52,3.9,24.36"/>
          <path class="cls-11" d="M4.68,325.65c-.18-.19-.3-.39-.35-.58l-2.1-9.05c-.71-4.67-1.62-10.9-2.05-15.6l.39.78c.58,8.39,1.98,16.57,4.11,24.46"/>
          <path class="cls-11" d="M252.02,323.12c-1.24,4.2-2.9,9.8-4.38,13.92-.26.28-.57.69-.89.9,2.88-7.63,5.05-15.63,6.44-23.92.33-.3.83-.69.98-1.11-.64,3.06-1.32,7.19-2.15,10.21"/>
          <path class="cls-11" d="M253.59,311.47c-1.03.62-2.82,1.19-5.3,1.69.6-4.17,1.01-8.41,1.22-12.72.21-4.3.22-8.58.03-12.8,2.48-.5,4.27-1.06,5.3-1.69.21,4.22.21,8.49,0,12.79-.21,4.31-.63,8.56-1.24,12.73"/>
          <path class="cls-11" d="M247.26,313.35c-2.66.48-5.99.91-9.92,1.27.56-4.17.95-8.41,1.16-12.72.21-4.3.23-8.58.08-12.81,3.93-.36,7.26-.78,9.92-1.27.19,4.23.18,8.5-.03,12.8-.21,4.31-.62,8.55-1.21,12.72"/>
          <path class="cls-11" d="M235.73,314.76c-4.09.34-8.75.62-13.93.84.51-4.16.88-8.4,1.09-12.71.21-4.3.26-8.58.16-12.81,5.17-.21,9.84-.49,13.93-.84.15,4.23.12,8.5-.09,12.81-.21,4.31-.6,8.55-1.16,12.72"/>
          <path class="cls-2" d="M219.7,315.68c-5.3.2-11.1.33-17.31.4.45-4.16.78-8.4.99-12.71.21-4.3.29-8.58.25-12.82,6.21-.07,12.01-.2,17.31-.4.1,4.23.04,8.51-.17,12.81-.21,4.31-.57,8.55-1.08,12.71"/>
          <path class="cls-11" d="M199.87,316.1c-6.32.05-13.04.03-20.08-.05.38-4.16.67-8.4.88-12.71s.33-8.58.36-12.82c7.04.08,13.76.1,20.08.05.03,4.24-.06,8.51-.27,12.82-.21,4.31-.54,8.55-.98,12.71"/>
          <path class="cls-11" d="M176.95,316.01c-7.12-.1-14.55-.27-22.21-.51.29-4.16.55-8.4.76-12.71.21-4.3.37-8.58.49-12.81,7.66.24,15.09.41,22.21.51-.04,4.24-.17,8.51-.38,12.82-.21,4.31-.5,8.55-.87,12.71"/>
          <path class="cls-11" d="M151.63,315.41c-7.72-.26-15.66-.58-23.74-.97.21-4.17.42-8.41.63-12.72.21-4.3.42-8.58.62-12.81,8.08.39,16.02.72,23.74.97-.13,4.23-.29,8.51-.5,12.81-.21,4.31-.46,8.55-.74,12.71"/>
          <path class="cls-6" d="M124.63,314.27c-4.33-.22-8.7-.46-13.1-.72-3.84-.23-7.62-.47-11.33-.71.12-4.17.28-8.42.49-12.73.21-4.3.46-8.57.76-12.8,3.71.25,7.49.49,11.33.71,4.39.26,8.76.5,13.1.72-.21,4.23-.43,8.5-.64,12.81-.21,4.31-.41,8.55-.61,12.72"/>
          <path class="cls-11" d="M97.02,312.62c-7.87-.54-15.42-1.13-22.59-1.75.03-4.18.15-8.43.36-12.73.21-4.3.51-8.57.88-12.79,7.17.62,14.72,1.2,22.59,1.75-.3,4.22-.56,8.49-.77,12.8-.21,4.31-.37,8.55-.47,12.73"/>
          <path class="cls-11" d="M71.56,310.63c-7.06-.63-13.73-1.29-19.95-1.97-.04-4.18.04-8.44.25-12.75.21-4.3.54-8.57.99-12.78,6.22.68,12.89,1.34,19.95,1.97-.39,4.22-.69,8.48-.9,12.79s-.32,8.56-.35,12.74"/>
          <path class="cls-11" d="M49.12,308.38c-6.1-.69-11.73-1.4-16.84-2.12-.1-4.19-.06-8.45.15-12.76.21-4.3.58-8.56,1.09-12.77,5.11.72,10.75,1.43,16.84,2.12-.46,4.21-.8,8.47-1.01,12.78-.21,4.31-.29,8.56-.24,12.75"/>
          <path class="cls-11" d="M30.25,305.97c-4.97-.72-9.42-1.46-13.26-2.19-.15-4.2-.13-8.46.08-12.77.21-4.3.6-8.56,1.16-12.76,3.85.73,8.29,1.47,13.26,2.19-.52,4.2-.89,8.46-1.1,12.77-.21,4.31-.26,8.57-.14,12.76"/>
          <path class="cls-7" d="M15.47,303.49c-3.69-.73-6.77-1.47-9.19-2.19-.19-4.21-.18-8.47.03-12.78.21-4.3.62-8.56,1.22-12.74,2.42.72,5.5,1.46,9.19,2.19-.57,4.19-.96,8.45-1.17,12.75-.21,4.31-.23,8.57-.07,12.77"/>
          <path class="cls-11" d="M5.35,301c-2.24-.72-3.8-1.43-4.63-2.12-.21-4.22-.21-8.48,0-12.79s.63-8.55,1.24-12.73c.83.69,2.39,1.4,4.63,2.12-.6,4.19-1.01,8.44-1.22,12.74s-.21,8.57-.02,12.78"/>
          <path class="cls-11" d="M.42,298.61c-.25-.27-.38-.53-.4-.8-.04-3.87-.16-9.02,0-12.88.34-3.85.72-8.99,1.26-12.81-.05.32.08.64.39.96-.62,4.18-1.04,8.42-1.25,12.73-.21,4.31-.21,8.58,0,12.8"/>
          <path class="cls-11" d="M255.84,297.51c-.34,3.85-.73,8.99-1.26,12.82-.06.39-.38.76-.99,1.13.62-4.18,1.03-8.42,1.24-12.73s.21-8.57,0-12.79c.69-.42,1.02-.85.99-1.3.04,3.86.25,9.02,0,12.87"/>
          <path class="cls-11" d="M254.69,283.34c-1.03.62-2.81,1.18-5.28,1.68-.54-8.42-1.85-16.65-3.86-24.6,2.37-.48,4.08-1.02,5.06-1.61,2.12,7.92,3.5,16.13,4.08,24.53"/>
          <path class="cls-11" d="M248.37,285.22c-2.65.48-5.98.9-9.89,1.26-.45-8.43-1.61-16.68-3.4-24.66,3.75-.34,6.94-.75,9.48-1.21,1.99,7.96,3.29,16.19,3.82,24.61"/>
          <path class="cls-11" d="M236.87,286.63c-4.08.34-8.73.62-13.89.83-.33-8.44-1.27-16.7-2.75-24.7,4.94-.21,9.41-.47,13.31-.8,1.76,7.99,2.9,16.24,3.33,24.67"/>
          <path class="cls-11" d="M220.87,287.55c-5.29.2-11.08.33-17.27.4-.18-8.44-.84-16.71-1.95-24.72,5.94-.06,11.48-.19,16.55-.38,1.45,8.01,2.35,16.27,2.67,24.71"/>
          <path class="cls-11" d="M201.08,287.97c-6.3.05-13.01.03-20.03-.05,0-8.44-.35-16.71-1.01-24.72,6.73.08,13.16.1,19.2.05,1.05,8.01,1.68,16.28,1.84,24.72"/>
          <path class="cls-6" d="M178.21,287.88c-7.1-.1-14.52-.27-22.16-.51.19-8.44.2-16.7.04-24.7,7.32.23,14.43.39,21.24.48.6,8.01.91,16.28.89,24.72"/>
          <path class="cls-11" d="M152.94,287.27c-7.7-.25-15.63-.58-23.69-.97.4-8.43.79-16.67,1.16-24.66,7.72.38,15.32.69,22.7.93.1,8,.05,16.26-.17,24.7"/>
          <path class="cls-11" d="M126,286.14c-4.32-.22-8.68-.46-13.07-.72-3.83-.23-7.6-.46-11.3-.71.62-8.41,1.4-16.64,2.31-24.59,3.55.24,7.16.46,10.83.68,4.2.25,8.38.48,12.52.69-.43,7.98-.86,16.22-1.29,24.65"/>
          <path class="cls-11" d="M98.46,284.5c-7.85-.54-15.39-1.13-22.54-1.74.82-8.4,1.96-16.6,3.38-24.51,6.86.59,14.08,1.15,21.6,1.67-.98,7.94-1.8,16.17-2.44,24.58"/>
          <path class="cls-2" d="M73.06,282.51c-7.05-.63-13.7-1.28-19.91-1.96,1-8.38,2.46-16.55,4.33-24.41,5.95.65,12.33,1.28,19.08,1.88-1.48,7.91-2.66,16.1-3.5,24.5"/>
          <path class="cls-11" d="M50.66,280.27c-6.08-.69-11.71-1.39-16.81-2.11,1.15-8.36,2.88-16.5,5.14-24.31,4.89.69,10.28,1.37,16.11,2.02-1.92,7.86-3.42,16.02-4.44,24.4"/>
          <path class="cls-5" d="M31.83,277.86c-4.96-.72-9.39-1.45-13.23-2.19,1.27-8.34,3.22-16.44,5.78-24.21,3.68.7,7.93,1.4,12.68,2.1-2.3,7.81-4.06,15.94-5.22,24.3"/>
          <path class="cls-11" d="M17.09,275.38c-3.68-.73-6.76-1.47-9.17-2.19,1.35-8.32,3.45-16.39,6.22-24.11,2.31.69,5.26,1.39,8.79,2.1-2.59,7.76-4.56,15.86-5.84,24.2"/>
          <path class="cls-11" d="M6.99,272.9c-2.23-.72-3.8-1.43-4.62-2.11,1.39-8.31,3.57-16.33,6.45-24.01.79.66,2.29,1.34,4.43,2.03-2.79,7.72-4.9,15.77-6.26,24.1"/>
          <path class="cls-11" d="M2.07,270.52c-.31-.33-.44-.66-.38-.98l1.04-5.45c1.44-5.66,3.62-13.14,5.49-18.67-.14.36-.02.73.32,1.1-2.89,7.67-5.07,15.69-6.47,24"/>
          <path class="cls-11" d="M255.17,276.5l.51,5.53c.03.45-.29.89-.99,1.31-.58-8.4-1.96-16.61-4.08-24.53.76-.46,1.05-.93.92-1.42,1.3,5.69,2.94,13.32,3.64,19.12"/>
          <path class="cls-11" d="M249.94,256.39c-.98.59-2.68,1.13-5.03,1.6-2.16-7.9-5-15.52-8.48-22.77,2.16-.44,3.72-.93,4.61-1.47,3.64,7.2,6.63,14.77,8.9,22.64"/>
          <path class="cls-7" d="M243.92,258.18c-2.53.46-5.69.86-9.42,1.2-1.93-7.93-4.49-15.59-7.61-22.89,3.42-.31,6.32-.68,8.64-1.1,3.44,7.26,6.26,14.88,8.4,22.79"/>
          <path class="cls-11" d="M232.97,259.52c-3.88.33-8.32.59-13.23.79-1.6-7.95-3.75-15.64-6.39-22.97,4.5-.19,8.57-.43,12.13-.73,3.08,7.3,5.59,14.97,7.49,22.9"/>
          <path class="cls-11" d="M217.74,260.39c-5.04.19-10.55.31-16.44.38-1.19-7.96-2.83-15.66-4.85-23.01,5.41-.06,10.46-.17,15.08-.35,2.57,7.33,4.66,15.02,6.22,22.97"/>
          <path class="cls-2" d="M198.9,260.79c-6,.05-12.38.03-19.07-.05-.72-7.96-1.75-15.66-3.07-23,6.13.07,11.98.09,17.49.04,1.95,7.35,3.51,15.04,4.65,23.01"/>
          <path class="cls-11" d="M177.13,260.71c-6.76-.1-13.82-.26-21.1-.48-.2-7.95-.57-15.63-1.09-22.96,6.67.21,13.14.35,19.34.44,1.22,7.34,2.18,15.04,2.84,23"/>
          <path class="cls-9" d="M153.08,260.13c-7.33-.24-14.88-.55-22.55-.92.36-7.93.71-15.58,1.03-22.88,7.04.34,13.95.62,20.68.85.43,7.32.71,15,.85,22.95"/>
          <path class="cls-11" d="M127.43,259.05c-4.12-.21-8.27-.44-12.44-.68-3.65-.22-7.24-.44-10.76-.68.94-7.9,2.02-15.51,3.21-22.75,3.23.22,6.52.42,9.87.62,3.83.23,7.63.44,11.41.63-.42,7.29-.85,14.94-1.29,22.86"/>
          <path class="cls-8" d="M101.2,257.49c-7.48-.52-14.65-1.07-21.46-1.66,1.48-7.85,3.24-15.41,5.25-22.6,6.24.54,12.82,1.05,19.68,1.52-1.29,7.24-2.46,14.84-3.47,22.73"/>
          <path class="cls-5" d="M77.02,255.59c-6.71-.6-13.05-1.22-18.95-1.87,1.96-7.81,4.33-15.31,7.05-22.42,5.42.59,11.23,1.17,17.38,1.71-2.1,7.17-3.93,14.73-5.48,22.58"/>
          <path class="cls-11" d="M55.7,253.46c-5.79-.65-11.14-1.33-16-2.01,2.36-7.76,5.24-15.2,8.58-22.23,4.45.63,9.36,1.24,14.67,1.84-2.8,7.1-5.24,14.6-7.25,22.4"/>
          <path class="cls-11" d="M37.78,251.17c-4.72-.69-8.94-1.38-12.6-2.08,2.68-7.71,5.97-15.08,9.79-22.03,3.35.64,7.22,1.28,11.55,1.91-3.4,7.03-6.33,14.46-8.74,22.21"/>
          <path class="cls-11" d="M23.74,248.81c-3.5-.7-6.43-1.39-8.73-2.08,2.91-7.65,6.48-14.96,10.63-21.84,2.11.63,4.79,1.27,8,1.91-3.86,6.95-7.19,14.31-9.91,22.01"/>
          <path class="cls-11" d="M14.12,246.45c-2.13-.68-3.61-1.36-4.4-2.01,3.02-7.6,6.74-14.85,11.07-21.65.72.6,2.09,1.22,4.04,1.84-4.18,6.87-7.78,14.17-10.7,21.82"/>
          <path class="cls-11" d="M9.44,244.18c-.35-.38-.46-.75-.31-1.11,2.28-5.1,5.52-11.81,8.16-16.72l3.05-4.98c-.25.39-.18.78.2,1.19-4.34,6.79-8.06,14.03-11.09,21.63"/>
          <path class="cls-11" d="M244.35,237.51c2.12,5.16,4.75,12.14,6.49,17.44.14.49-.15.97-.91,1.43-2.27-7.87-5.26-15.44-8.9-22.64.79-.48,1.03-.98.76-1.49l2.55,5.25"/>
          <path class="cls-11" d="M239.9,231.55c-.89.54-2.43,1.02-4.56,1.45-3.6-7.17-7.81-13.97-12.57-20.31,1.86-.38,3.2-.8,3.97-1.26,4.98,6.27,9.39,13,13.16,20.12"/>
          <path class="cls-11" d="M234.45,233.17c-2.29.42-5.16.78-8.54,1.09-3.24-7.22-7.05-14.07-11.35-20.47,2.94-.27,5.44-.59,7.43-.95,4.71,6.34,8.89,13.15,12.45,20.33"/>
          <path class="cls-5" d="M224.52,234.39c-3.52.29-7.54.54-11.99.72-2.74-7.25-5.96-14.14-9.61-20.58,3.88-.16,7.37-.37,10.44-.63,4.23,6.4,7.98,13.26,11.17,20.49"/>
          <path class="cls-11" d="M210.72,235.18c-4.57.17-9.56.28-14.91.34-2.11-7.27-4.6-14.17-7.44-20.63,4.65-.05,9-.15,12.97-.3,3.56,6.44,6.71,13.33,9.38,20.59"/>
          <path class="cls-11" d="M193.64,235.54c-5.44.04-11.23.03-17.29-.04-1.37-7.27-3.02-14.17-4.92-20.63,5.28.06,10.31.07,15.05.04,2.74,6.46,5.14,13.37,7.16,20.64"/>
          <path class="cls-7" d="M173.9,235.47c-6.13-.09-12.53-.23-19.13-.44-.56-7.25-1.27-14.13-2.12-20.57,5.74.18,11.31.3,16.65.38,1.78,6.46,3.32,13.36,4.6,20.63"/>
          <path class="cls-11" d="M152.09,234.94c-6.65-.22-13.49-.5-20.44-.84.32-7.21.61-14.06.88-20.45,6.05.29,12.01.54,17.79.73.72,6.43,1.32,13.31,1.78,20.56"/>
          <path class="cls-6" d="M128.85,233.97c-3.73-.19-7.49-.4-11.28-.62-3.31-.2-6.56-.4-9.76-.61,1.22-7.16,2.55-13.95,3.97-20.27,2.78.19,5.61.36,8.49.53,3.29.19,6.57.37,9.81.54-.4,6.38-.82,13.22-1.24,20.43"/>
          <path class="cls-11" d="M105.07,232.55c-6.78-.47-13.28-.97-19.46-1.5,2.05-7.1,4.35-13.81,6.84-20.05,5.37.46,11.03.9,16.93,1.31-1.55,6.31-3,13.09-4.32,20.25"/>
          <path class="cls-11" d="M83.15,230.83c-6.08-.54-11.83-1.11-17.18-1.69,2.8-7.03,5.94-13.66,9.39-19.8,4.66.51,9.66,1,14.95,1.47-2.62,6.23-5.02,12.93-7.16,20.02"/>
          <path class="cls-7" d="M63.82,228.89c-5.25-.59-10.1-1.2-14.5-1.82,3.42-6.95,7.3-13.49,11.55-19.54,3.83.54,8.05,1.07,12.62,1.59-3.55,6.14-6.79,12.76-9.67,19.77"/>
          <path class="cls-11" d="M47.57,226.82c-4.28-.62-8.11-1.26-11.42-1.89,3.92-6.87,8.37-13.31,13.26-19.26,2.88.55,6.21,1.1,9.94,1.64-4.34,6.04-8.29,12.57-11.78,19.5"/>
          <path class="cls-2" d="M34.85,224.68c-3.17-.63-5.83-1.26-7.91-1.89,4.27-6.79,9.11-13.14,14.45-18.98,1.81.54,4.12,1.09,6.89,1.64-4.96,5.93-9.46,12.37-13.43,19.23"/>
          <path class="cls-11" d="M26.13,222.54c-1.93-.62-3.28-1.23-3.99-1.82,4.45-6.71,9.5-12.97,15.08-18.71.62.52,1.79,1.05,3.47,1.59-5.38,5.83-10.26,12.17-14.56,18.95"/>
          <path class="cls-11" d="M21.89,220.48c-.38-.41-.45-.81-.18-1.2,2.05-2.81,4.72-6.62,6.9-9.34,2.49-2.84,5.77-6.66,8.39-9.37-.39.39-.38.8,0,1.22-5.58,5.73-10.65,11.98-15.11,18.68"/>
          <path class="cls-11" d="M229.03,212.18l5.66,7.91c1.81,2.98,4.28,6.91,5.96,9.97.28.52.04,1.02-.74,1.49-3.77-7.12-8.18-13.85-13.16-20.12.77-.47.93-.96.54-1.47.59.73,1.18,1.47,1.75,2.21"/>
          <path class="cls-11" d="M225.2,209.52c-.76.46-2.08.87-3.9,1.24-4.87-6.24-10.28-12.02-16.15-17.24,1.48-.3,2.55-.63,3.16-1.01,6.14,5.13,11.8,10.83,16.89,17"/>
          <path class="cls-11" d="M220.53,210.91c-1.96.36-4.41.67-7.3.93-4.4-6.31-9.3-12.15-14.62-17.44,2.34-.21,4.33-.47,5.92-.76,5.82,5.23,11.18,11.01,16.01,17.27"/>
          <path class="cls-11" d="M212.04,211.95c-3.01.25-6.45.46-10.26.62-3.74-6.35-7.91-12.24-12.45-17.58,3.09-.13,5.87-.29,8.31-.5,5.24,5.3,10.06,11.15,14.4,17.46"/>
          <path class="cls-11" d="M200.23,212.63c-3.91.15-8.18.24-12.75.29-2.91-6.37-6.17-12.28-9.73-17.65,3.7-.04,7.16-.12,10.33-.24,4.43,5.35,8.5,11.24,12.15,17.59"/>
          <path class="cls-6" d="M185.63,212.94c-4.65.04-9.6.02-14.79-.04-1.95-6.37-4.15-12.28-6.57-17.64,4.2.05,8.21.06,11.98.03,3.43,5.37,6.57,11.28,9.38,17.65"/>
          <path class="cls-11" d="M168.74,212.87c-5.24-.07-10.72-.2-16.36-.37-.88-6.34-1.91-12.23-3.06-17.57,4.57.14,9,.24,13.25.3,2.27,5.36,4.34,11.27,6.17,17.64"/>
          <path class="cls-11" d="M150.09,212.43c-5.69-.19-11.53-.43-17.48-.72.26-6.3.49-12.13.7-17.42,4.82.23,9.56.43,14.16.58,1,5.33,1.87,11.21,2.63,17.55"/>
          <path class="cls-11" d="M130.21,211.59c-3.19-.16-6.41-.34-9.65-.53-2.83-.17-5.61-.34-8.34-.52,1.44-6.23,2.97-11.99,4.57-17.19,2.21.15,4.47.29,6.76.43,2.62.16,5.23.3,7.81.43-.37,5.28-.75,11.1-1.15,17.39"/>
          <path class="cls-11" d="M109.87,210.38c-5.8-.4-11.36-.83-16.64-1.29,2.54-6.15,5.28-11.81,8.18-16.92,4.28.37,8.78.72,13.48,1.04-1.76,5.19-3.44,10.94-5.02,17.16"/>
          <path class="cls-9" d="M91.12,208.91c-5.2-.46-10.12-.95-14.7-1.45,3.51-6.05,7.32-11.62,11.37-16.61,3.71.41,7.69.8,11.9,1.17-3.05,5.09-5.92,10.75-8.58,16.88"/>
          <path class="cls-11" d="M74.59,207.25c-4.49-.51-8.64-1.03-12.41-1.56,4.34-5.95,9.05-11.4,14.08-16.27,3.05.43,6.41.85,10.05,1.26-4.18,4.98-8.1,10.53-11.72,16.57"/>
          <path class="cls-11" d="M60.69,205.48c-3.66-.53-6.93-1.07-9.77-1.61,4.99-5.84,10.42-11.18,16.22-15.93,2.3.44,4.94.88,7.91,1.31-5.13,4.86-9.94,10.29-14.36,16.23"/>
          <path class="cls-11" d="M49.81,203.65c-2.72-.54-4.99-1.08-6.77-1.61,5.44-5.74,11.37-10.96,17.71-15.58,1.44.43,3.28.87,5.48,1.31-5.88,4.73-11.38,10.05-16.43,15.88"/>
          <path class="cls-11" d="M42.35,201.82c-1.65-.53-2.8-1.05-3.41-1.56,5.68-5.64,11.87-10.74,18.49-15.24.49.41,1.43.83,2.76,1.26-6.39,4.61-12.36,9.81-17.84,15.54"/>
          <path class="cls-11" d="M38.72,200.06c-.39-.42-.39-.83.01-1.22l3.5-3.29c3.77-3.16,8.87-7.3,12.84-10.22.8-.56,1.61-1.11,2.42-1.65-.55.37-.62.77-.24,1.17-6.64,4.49-12.84,9.58-18.53,15.2"/>
          <path class="cls-11" d="M215.89,197.63c-2.35-2.24-4.79-4.39-7.31-6.44-.03-.03-.07-.06-.11-.1,2.23,1.96,5.27,4.49,7.42,6.53"/>
          <path class="cls-11" d="M225.72,208.08c.39.5.23.98-.53,1.44-5.1-6.17-10.75-11.87-16.89-17,.61-.37.74-.76.43-1.17,6.18,5.04,11.87,10.64,16.99,16.73"/>
          <path class="cls-11" d="M206.4,190.97c-.6.36-1.64.69-3.08.98-5.97-5.1-12.39-9.64-19.2-13.53,1.03-.21,1.78-.44,2.21-.7,7.12,3.79,13.83,8.24,20.07,13.26"/>
          <path class="cls-2" d="M202.72,192.06c-1.54.28-3.48.53-5.76.74-5.41-5.18-11.23-9.8-17.41-13.77,1.64-.15,3.03-.33,4.14-.53,6.75,3.9,13.12,8.45,19.03,13.56"/>
          <path class="cls-11" d="M196.02,192.88c-2.37.2-5.09.36-8.09.49-4.61-5.23-9.59-9.9-14.87-13.93,2.16-.09,4.11-.21,5.81-.35,6.09,3.98,11.82,8.61,17.15,13.79"/>
          <path class="cls-11" d="M186.71,193.41c-3.08.11-6.45.19-10.06.23-3.62-5.25-7.53-9.95-11.69-14.01,2.59-.03,5.01-.08,7.23-.17,5.16,4.04,10.02,8.71,14.52,13.95"/>
          <path class="cls-11" d="M175.19,193.66c-3.67.03-7.57.02-11.67-.03-2.46-5.25-5.14-9.95-8-14.01,2.94.03,5.74.04,8.38.02,4.02,4.06,7.79,8.76,11.28,14.01"/>
          <path class="cls-11" d="M161.87,193.61c-4.14-.06-8.45-.16-12.9-.29-1.18-5.22-2.48-9.89-3.9-13.92,3.2.1,6.3.17,9.27.21,2.7,4.06,5.22,8.75,7.53,14"/>
          <path class="cls-11" d="M147.16,193.26c-4.49-.15-9.1-.34-13.79-.56.2-5.17.36-9.78.49-13.74,3.37.16,6.69.3,9.91.41,1.24,4.02,2.37,8.68,3.39,13.9"/>
          <path class="cls-11" d="M131.47,192.6c-2.52-.13-5.06-.27-7.61-.42-2.23-.13-4.43-.27-6.58-.41,1.61-5.09,3.29-9.61,5.02-13.48,1.55.1,3.13.2,4.73.3,1.83.11,3.66.21,5.47.3-.32,3.96-.66,8.56-1.02,13.72"/>
          <path class="cls-5" d="M115.43,191.64c-4.57-.32-8.96-.66-13.13-1.01,2.93-4.99,6.02-9.4,9.24-13.16,2.99.26,6.15.5,9.43.73-1.91,3.86-3.76,8.37-5.54,13.45"/>
          <path class="cls-11" d="M100.64,190.48c-4.1-.36-7.98-.75-11.59-1.14,4.1-4.87,8.44-9.17,12.97-12.8,2.6.28,5.38.56,8.33.82-3.38,3.75-6.62,8.15-9.7,13.12"/>
          <path class="cls-2" d="M87.6,189.17c-3.54-.4-6.82-.81-9.79-1.23,5.09-4.75,10.49-8.91,16.13-12.41,2.13.3,4.49.6,7.03.88-4.67,3.62-9.15,7.89-13.37,12.75"/>
          <path class="cls-11" d="M76.64,187.78c-2.89-.42-5.47-.85-7.71-1.27,5.87-4.62,12.11-8.65,18.63-12,1.61.31,3.46.61,5.54.92-5.76,3.48-11.27,7.62-16.46,12.36"/>
          <path class="cls-11" d="M68.05,186.33c-2.14-.43-3.93-.85-5.34-1.27,6.42-4.5,13.24-8.39,20.38-11.59,1.01.3,2.3.61,3.84.92-6.61,3.33-12.93,7.34-18.88,11.95"/>
          <path class="cls-11" d="M62.17,184.89c-1.3-.42-2.21-.83-2.69-1.23,6.7-4.37,13.83-8.13,21.29-11.2.35.29,1,.58,1.93.88-7.19,3.19-14.07,7.06-20.53,11.55"/>
          <path class="cls-11" d="M59.31,183.5c-.37-.4-.3-.78.23-1.14,6.7-4.26,13.82-7.89,21.27-10.83-.38.26-.43.54-.17.82-7.48,3.05-14.62,6.8-21.34,11.15"/>
          <path class="cls-11" d="M64.71,179.23c10.68-5.61,10.89-5.71,16.97-8.1-.28.09-.51.19-.7.29-5.63,2.22-11.07,4.83-16.27,7.81"/>
          <path class="cls-11" d="M191.57,179.45c4.58,2.88,10.58,6.89,14.94,10.09.06.04.11.09.15.13-6.26-4.9-13-9.23-20.14-12.89-.15-.14-.36-.28-.65-.42l5.7,3.09"/>
          <path class="cls-11" d="M206.82,189.83c.31.39.18.78-.42,1.14-6.24-5.02-12.95-9.46-20.07-13.26.43-.26.52-.53.3-.82,7.16,3.68,13.91,8.02,20.18,12.94"/>
          <path class="cls-11" d="M184.14,176.57c-.41.25-1.13.47-2.12.67-6.89-3.76-14.17-6.86-21.75-9.22.54-.11.93-.23,1.15-.37,7.92,2.25,15.51,5.25,22.72,8.91"/>
          <path class="cls-11" d="M181.61,177.32c-1.06.19-2.39.36-3.96.51-6.25-3.84-12.86-7.04-19.75-9.49.85-.08,1.57-.17,2.15-.27,7.52,2.37,14.73,5.49,21.56,9.26"/>
          <path class="cls-11" d="M177,177.88c-1.63.14-3.5.25-5.57.33-5.35-3.9-11-7.15-16.91-9.67,1.12-.05,2.13-.11,3.02-.18,6.79,2.46,13.29,5.66,19.45,9.51"/>
          <path class="cls-11" d="M170.59,178.25c-2.12.08-4.44.13-6.92.16-4.22-3.93-8.68-7.21-13.36-9.75,1.35-.01,2.6-.04,3.75-.09,5.77,2.52,11.29,5.78,16.52,9.68"/>
          <path class="cls-11" d="M162.67,178.42c-2.53.02-5.21.01-8.02-.02-2.9-3.93-5.99-7.21-9.23-9.75,1.53.02,2.98.02,4.35.01,4.51,2.55,8.82,5.83,12.9,9.76"/>
          <path class="cls-11" d="M153.5,178.38c-2.85-.04-5.82-.11-8.88-.2-1.44-3.9-2.99-7.14-4.65-9.65,1.66.05,3.27.09,4.82.11,3.06,2.54,5.97,5.82,8.71,9.74"/>
          <path class="cls-7" d="M143.38,178.14c-3.09-.1-6.26-.23-9.49-.39.12-3.83.21-7.01.26-9.45,1.75.09,3.47.16,5.15.21,1.45,2.5,2.82,5.74,4.08,9.63"/>
          <path class="cls-11" d="M132.59,177.69c-1.73-.09-3.48-.18-5.23-.29-1.53-.09-3.04-.19-4.53-.28,1.74-3.74,3.52-6.82,5.32-9.16.8.05,1.62.11,2.46.15.95.06,1.9.11,2.84.16-.26,2.43-.54,5.6-.86,9.42"/>
          <path class="cls-11" d="M121.56,177.03c-3.15-.22-6.16-.45-9.03-.7,3.24-3.63,6.6-6.59,10.03-8.8,1.55.13,3.19.26,4.9.38-2.01,2.33-3.98,5.39-5.9,9.12"/>
          <path class="cls-11" d="M111.39,176.23c-2.82-.25-5.49-.51-7.97-.79,4.57-3.5,9.32-6.32,14.2-8.4,1.35.15,2.8.29,4.33.43-3.62,2.2-7.15,5.15-10.56,8.76"/>
          <path class="cls-11" d="M102.42,175.33c-2.44-.27-4.69-.56-6.73-.85,5.69-3.36,11.63-6.04,17.74-7.96,1.11.16,2.33.31,3.65.46-5.04,2.06-9.95,4.87-14.66,8.35"/>
          <path class="cls-11" d="M94.87,174.37c-1.99-.29-3.76-.58-5.3-.88,6.59-3.21,13.45-5.74,20.53-7.51.83.16,1.8.32,2.88.48-6.24,1.9-12.3,4.57-18.11,7.91"/>
          <path class="cls-11" d="M88.97,173.38c-1.47-.29-2.71-.59-3.67-.88,7.21-3.07,14.73-5.44,22.49-7.05.52.16,1.19.32,1.99.48-7.17,1.75-14.14,4.26-20.81,7.45"/>
          <path class="cls-11" d="M84.92,172.38c-.89-.29-1.52-.57-1.85-.85,7.53-2.93,15.4-5.16,23.51-6.61.18.15.52.3,1,.46-7.82,1.59-15.4,3.95-22.66,7"/>
          <path class="cls-11" d="M82.95,171.43c-.25-.27-.21-.54.16-.79,7.53-2.8,15.38-4.89,23.49-6.2-.2.14-.22.28-.09.43-8.13,1.44-16.01,3.65-23.56,6.56"/>
          <path class="cls-11" d="M83.28,170.54c.2-.11.46-.21.78-.31,4.56-1.5,10.69-3.36,15.34-4.57l3.38-.73c1.7-.34,3.41-.65,5.13-.91-.56.11-.97.23-1.21.36-8.08,1.3-15.91,3.37-23.41,6.16"/>
          <path class="cls-11" d="M104.83,164.54l3.77-.63c-.16.02-.32.05-.47.07l-3.3.56"/>
          <path class="cls-11" d="M155.82,165.84c-.32-.09-.63-.18-.95-.27l-.95-.13,1.91.4"/>
          <path class="cls-11" d="M156.73,166.04c3.57.82,4.12.94,6.89,1.67-1.81-.59-3.64-1.12-5.49-1.6-.82-.16-1.76-.32-2.83-.48.48.13.96.26,1.43.4"/>
          <path class="cls-11" d="M164.53,167.96c3.41.98,4.03,1.16,6.58,2.02-3.5-1.28-7.08-2.39-10.73-3.33-.5-.16-1.15-.32-1.94-.47,2.05.53,4.08,1.13,6.09,1.78"/>
          <path class="cls-11" d="M171.95,170.27l1.16.43c3.16,1.32,7.39,3.06,10.48,4.52.33.15.57.3.73.45-7.23-3.53-14.85-6.39-22.8-8.5-.16-.15-.48-.3-.94-.46,3.87,1,7.66,2.19,11.37,3.56"/>
          <path class="cls-11" d="M184.42,175.78c.21.27.13.53-.29.78-7.2-3.66-14.8-6.66-22.72-8.91.22-.14.27-.28.16-.42,7.96,2.13,15.6,5.01,22.85,8.55"/>
          <path class="cls-11" d="M158.98,166.99c-.2.12-.56.23-1.05.33-7.64-2.21-15.58-3.66-23.75-4.28,0,0,0,0,0,0,8.53.51,16.82,1.85,24.8,3.95"/>
          <path class="cls-11" d="M157.73,167.36c-.52.1-1.18.18-1.96.25-6.94-2.3-14.16-3.85-21.59-4.57,0,0,0,0,0,0,8.1.63,15.97,2.1,23.55,4.32"/>
          <path class="cls-11" d="M155.46,167.64c-.81.07-1.73.12-2.75.17-5.95-2.36-12.14-3.98-18.53-4.76,0,0,0,0,0,0,7.32.73,14.44,2.29,21.27,4.6"/>
          <path class="cls-11" d="M152.29,167.82c-1.05.04-2.19.07-3.42.08-4.71-2.39-9.62-4.04-14.7-4.86,0,0,0,0,0,0,6.24.79,12.29,2.41,18.11,4.78"/>
          <path class="cls-11" d="M148.38,167.9c-1.25,0-2.57,0-3.96,0-3.27-2.39-6.69-4.04-10.24-4.85,0,0,0,0,0,0,4.9.82,9.65,2.47,14.2,4.86"/>
          <path class="cls-11" d="M143.85,167.88c-1.41-.02-2.87-.05-4.38-.1-1.67-2.36-3.44-3.97-5.29-4.74,0,0,0,0,0,0,3.35.81,6.59,2.46,9.67,4.84"/>
          <path class="cls-11" d="M138.86,167.76c-1.52-.05-3.09-.11-4.69-.19.04-2.29.05-3.83,0-4.53,0,0,0,0,0,0,1.64.77,3.21,2.37,4.68,4.72"/>
          <path class="cls-11" d="M133.53,167.54c-.86-.04-1.72-.09-2.58-.14-.76-.04-1.5-.09-2.24-.14,1.81-2.19,3.64-3.62,5.47-4.22,0,0,0,0,0,0,0,0,0,0,0,0-.18.69-.4,2.22-.65,4.5"/>
          <path class="cls-11" d="M128.08,167.22c-1.55-.11-3.04-.22-4.46-.34,3.45-2.06,6.98-3.36,10.55-3.83,0,0,0,0,0,0-2.05.58-4.09,2-6.1,4.17"/>
          <path class="cls-11" d="M123.06,166.82c-1.39-.12-2.71-.25-3.94-.39,4.91-1.92,9.94-3.08,15.06-3.39,0,0,0,0,0,0-3.76.45-7.48,1.74-11.12,3.78"/>
          <path class="cls-11" d="M118.63,166.38c-1.2-.14-2.32-.28-3.32-.42,6.14-1.77,12.45-2.77,18.87-2.92,0,0,0,0,0,0-5.28.3-10.48,1.44-15.55,3.34"/>
          <path class="cls-11" d="M114.9,165.9c-.98-.14-1.86-.29-2.62-.43,7.12-1.61,14.44-2.44,21.89-2.43,0,0,0,0,0,0-6.56.13-13,1.12-19.27,2.86"/>
          <path class="cls-11" d="M111.99,165.41c-.73-.14-1.34-.29-1.81-.43,7.8-1.45,15.83-2.12,24-1.94,0,0,0,0,0,0-7.55-.03-14.97.78-22.19,2.37"/>
          <path class="cls-11" d="M109.99,164.92c-.44-.14-.75-.28-.91-.42,8.16-1.3,16.55-1.81,25.1-1.46,0,0,0,0,0,0-8.24-.2-16.33.45-24.19,1.88"/>
          <path class="cls-11" d="M109.01,164.45c-.12-.13-.1-.26.08-.39,8.15-1.15,16.54-1.52,25.08-1.02,0,0,0,0,0,0-8.57-.36-16.98.13-25.16,1.41"/>
          <path class="cls-11" d="M109.18,164.01c.22-.12.6-.23,1.1-.33,7.77-1.03,15.76-1.27,23.89-.64,0,0,0,0,0,0-8.51-.51-16.87-.16-25,.97"/>
          <path class="cls-11" d="M110.49,163.65c.23-.04.48-.08.76-.11l1.08-.14c1.19-.13,2.78-.31,3.97-.42,5.84-.54,11.82-.53,17.87.07,0,0,0,0,0,0-8.06-.64-15.99-.41-23.68.61"/>
          <path class="cls-11" d="M117.33,162.88l1.56-.12c1.16-.07,2.71-.16,3.87-.21,3.43.05,8,.15,11.42.49,0,0,0,0,0,0-5.7-.57-11.33-.61-16.84-.16"/>
          <path class="cls-11" d="M123.3,162.53c.8-.02,1.87-.05,2.67-.07h.66c2.49-.03,5.02.16,7.55.57,0,0,0,0,0,0-3.66-.47-7.29-.63-10.88-.51"/>
          <path class="cls-11" d="M126.99,162.46c.39,0,.91,0,1.3,0,.37,0,.86,0,1.22,0,1.54.02,3.1.21,4.66.58,0,0,0,0,0,0-2.41-.41-4.81-.6-7.18-.58"/>
          <path class="cls-11" d="M129.83,162.47h.44c.51.02,1.19.04,1.7.05.74.02,1.47.2,2.21.52,0,0,0,0,0,0-1.46-.36-2.91-.55-4.35-.57"/>
          <path class="cls-11" d="M132.24,162.53c.45.02,1.06.04,1.51.06l.49.02s-.04.14-.07.43c0,0,0,0,0,0-.65-.32-1.29-.49-1.94-.51"/>
          <path class="cls-11" d="M134.52,162.63c.29.02.67.04.96.05.49.04,1.15.08,1.64.13-.95-.14-1.93-.07-2.93.23,0,0,0,0,0,0,0,0,0,0,0,0,.12-.28.23-.42.34-.41"/>
          <path class="cls-11" d="M137.59,162.85c1.99.22,2.4.26,4.4.53-2.53-.55-5.13-.68-7.81-.34,0,0,0,0,0,0,1.16-.31,2.3-.37,3.41-.19"/>
          <path class="cls-11" d="M142.68,163.48c2.76.41,3.26.49,5.72.91-8.19-1.52-8.51-1.58-14.22-1.35,0,0,0,0,0,0,2.55-.06,5.97.07,8.5.44"/>
          <path class="cls-11" d="M149.24,164.54l1.11.2c.8.1,1.87.24,2.67.35-6.05-1.48-12.35-2.19-18.83-2.05,0,0,0,0,0,0,5.19-.28,10.22.25,15.06,1.5"/>
          <path class="cls-11" d="M153.41,165.15c.97.14,1.83.29,2.57.43-7.01-1.64-14.3-2.52-21.8-2.54,0,0,0,0,0,0,6.62-.12,13.05.61,19.23,2.11"/>
          <path class="cls-11" d="M156.28,165.64c.71.14,1.3.29,1.76.43-7.67-1.8-15.65-2.84-23.85-3.03,0,0,0,0,0,0,7.6.04,14.99.94,22.09,2.6"/>
          <path class="cls-11" d="M158.22,166.13c.42.14.71.28.86.42-8.01-1.96-16.33-3.15-24.89-3.51,0,0,0,0,0,0,8.27.21,16.3,1.27,24.03,3.09"/>
          <path class="cls-11" d="M159.12,166.6c.1.13.06.26-.14.39-7.98-2.1-16.27-3.44-24.8-3.95,0,0,0,0,0,0,8.58.37,16.92,1.59,24.94,3.56"/>
        </g>
      </g>
    </g>
  </g>
</svg>