<?xml version="1.0" encoding="UTF-8"?>
<svg id="Layer_3" data-name="Layer 3" xmlns="http://www.w3.org/2000/svg" viewBox="0 0 235 241">
  <defs>
    <style>
      .cls-1 {
        fill: #6a0225;
      }
    </style>
  </defs>
  <path class="cls-1" d="M119.18,240.82c-33.41,0-59.16-3.3-61.66-3.64-1.74-.19-14.16-1.76-26.98-9.02-12.83-7.27-28.52-21.69-30.42-49.13l-.02-.52c-.19-43.79.16-55.87.21-57.27.02-1.9.24-22.2,2.59-44.14C7.58,33.4,16.46,23.24,22.73,19.41l.64-.37c.75-.51,2.46-1.89,3.41-2.66,1.94-1.56,3-2.41,3.97-2.99C59.58-4.03,111.54.55,118.16,1.22c9.91-.39,73.99-2.05,94.4,18.36,21.69,21.69,22.55,48.31,22.34,101.69-.02,4.33,0,8.59.02,12.77.11,24.89.2,46.38-6.84,64.27-8.07,20.48-24.92,33.16-51.53,38.76l-.54.09c-19.55,2.74-39.25,3.66-56.83,3.66ZM16.11,178.18c2.83,38.52,41.51,42.93,43.16,43.1l.28.03c.58.08,58.87,7.73,113.98.04,21.35-4.55,33.59-13.47,39.67-28.91,5.92-15.03,5.83-35.1,5.73-58.34-.02-4.22-.04-8.52-.02-12.9.21-53.61-1.19-73.84-17.66-90.31-12.01-12.01-57.29-14.76-83-13.66l-.61.03-.61-.07c-.52-.06-52.35-5.51-77.89,9.84-.41.29-1.55,1.21-2.32,1.83-2.83,2.28-4.46,3.55-5.91,4.33-1.34,1-8.04,7.81-12.08,45.52-2.34,21.78-2.51,42.58-2.51,42.78v.24c0,.11-.4,11.38-.21,56.46ZM23.74,18.89h0s0,0,0,0Z"/>
  <path class="cls-1" d="M117.4,179.74c-32.53,0-59-26.47-59-59s26.47-59,59-59,59,26.47,59,59-26.47,59-59,59ZM117.4,77.74c-23.71,0-43,19.29-43,43s19.29,43,43,43,43-19.29,43-43-19.29-43-43-43Z"/>
  <circle class="cls-1" cx="181.9" cy="57.24" r="12.5"/>
</svg>