<?xml version="1.0" encoding="UTF-8"?>
<svg id="Layer_10" data-name="Layer 10" xmlns="http://www.w3.org/2000/svg" viewBox="0 0 240 240">
  <defs>
    <style>
      .cls-1 {
        fill: #6a0225;
      }
    </style>
  </defs>
  <path class="cls-1" d="M167,115v7.29s0,3.71,6,3.71h38v-14.56h-37.73s-6.27.56-6.27,3.56Z"/>
  <path class="cls-1" d="M130,93l-21.97-.11s-10.03.11-12.03,7.11-1,8-1,8h38.95s8.05,0,5.05-12c-3-4-9-3-9-3Z"/>
  <path class="cls-1" d="M190.81,0H49.19C22.14,0,0,22.14,0,49.19v141.62c0,27.06,22.14,49.19,49.19,49.19h141.62c27.06,0,49.19-22.14,49.19-49.19V49.19c0-27.06-22.14-49.19-49.19-49.19ZM70.78,134.82l-21.78-18.82-20.22,18.82h-8.78v-49.82h8.2l-.2,39,41.19-39h12.17l-26.36,25,29,24.82h-13.22ZM147,108.32s-2,6.68-12,7.68-40,0-40,0c0,0,0,11,13,11h38v7.82h-41.03s-15.97-1.82-17.97-15.82,1-23,1-23c0,0,5.45-11,17.22-11h29.44s9.33,1,12.33,8,0,15.32,0,15.32ZM219.94,134.82h-48.92s-12.02-.82-13.02-13.82,8-17,10-17c4-1,26-1,26-1h17s1-8-10-9-39.51-1.11-39.51-1.11v-7.89h40.34s14.17,2,17.17,13c2,7,.94,36.82.94,36.82Z"/>
</svg>