<?xml version="1.0" encoding="UTF-8"?>
<svg id="Layer_5" data-name="Layer 5" xmlns="http://www.w3.org/2000/svg" viewBox="0 0 240 240">
  <defs>
    <style>
      .cls-1 {
        fill: #6a0225;
      }
    </style>
  </defs>
  <path class="cls-1" d="M187.53,0H52.47C23.61,0,0,23.61,0,52.47v135.07c0,28.86,23.61,52.47,52.47,52.47h135.07c28.86,0,52.47-23.61,52.47-52.47V52.47c0-28.86-23.61-52.47-52.47-52.47ZM80,190h-30v-109h30v109ZM65.5,68c-9.67,0-17.5-7.84-17.5-17.5s7.83-17.5,17.5-17.5,17.5,7.84,17.5,17.5-7.83,17.5-17.5,17.5ZM200,130v61h-30v-61s-2-20-19-20-21,20-21,20v60h-29v-109h29v16.93s12-23.93,43.17-16.93c32.17,10,26.83,49,26.83,49Z"/>
</svg>