<?xml version="1.0" encoding="UTF-8"?>
<svg id="Layer_7" data-name="Layer 7" xmlns="http://www.w3.org/2000/svg" viewBox="0 0 255 255">
  <defs>
    <style>
      .cls-1 {
        fill: #6a0225;
      }
    </style>
  </defs>
  <path class="cls-1" d="M140.56,2.5c-8.32-2.84-17.3-3.03-25.72-.53-121.54,36.11,13.01,189.01,13.01,189.01,28.3-35.51,120.78-151.56,12.72-188.48ZM127.5,97.8c-19.33,0-35-15.67-35-35s15.67-35,35-35,35,15.67,35,35-15.67,35-35,35Z"/>
  <path class="cls-1" d="M25.5,177.8h18.59l-10.59,52h187.64l-10.26-52h19.06l17.38,52s7.21,19.94-11.8,24.97c-22.01.03-212.77,0-212.77,0,0,0-18.24-.97-16.24-21.97,7-20,19-55,19-55Z"/>
</svg>